# xmcd CD database file
#
# Track frame offsets:
#	150
#	13356
#	34285
#	45922
#	67243
#	76771
#	94732
#	110096
#	124529
#	140723
#	158018
#	171192
#	192681
#	204351
#	218403
#
# Disc length: 3217 seconds
#
# Revision: 3
# Processed by: cddbd v1.5.2PL0 Copyright (c) Steve Scherf et al.
# Submitted via: CDex 1.51
#
DISCID=d30c8f0f
DTITLE=MAGIC SLIM - Chicago Blues Session Volume 36(Alone and Unplugged)
DYEAR=1995
DGENRE=Blues
TTITLE0=Mixed Up About You
TTITLE1=Bring Me My Shotgun
TTITLE2=Boogie Chillun
TTITLE3=A Thousand Miles From Nowhere
TTITLE4=Iky and Mikey
TTITLE5=Don't Look Now I've Got The Blues
TTITLE6=Tough Enough
TTITLE7=I'm A Poor Man But A Good Man
TTITLE8=Sadie
TTITLE9=Bring Your Fine Self Home
TTITLE10=Bye Bye Pretty Baby
TTITLE11=You Laugh And Grin
TTITLE12=A Little Instrumental
TTITLE13=Nothin' For Nothin'
TTITLE14=Interview With Slim
EXTD=YEAR: 1995
EXTT0=
EXTT1=
EXTT2=
EXTT3=
EXTT4=
EXTT5=
EXTT6=
EXTT7=
EXTT8=
EXTT9=
EXTT10=
EXTT11=
EXTT12=
EXTT13=
EXTT14=
PLAYORDER=
